<?xml version="1.0" encoding="iso-8859-1"?>
<!-- Generator: Adobe Illustrator 17.1.0, SVG Export Plug-In . SVG Version: 6.00 Build 0)  -->
<!DOCTYPE svg PUBLIC "-//W3C//DTD SVG 1.1//EN" "http://www.w3.org/Graphics/SVG/1.1/DTD/svg11.dtd">
<svg version="1.1" id="Capa_1" xmlns="http://www.w3.org/2000/svg" xmlns:xlink="http://www.w3.org/1999/xlink" x="0px" y="0px"
	 viewBox="0 0 261.791 261.791" style="enable-background:new 0 0 261.791 261.791;" xml:space="preserve">
<g>
	<path style="fill:#000002;" d="M213.02,58.899h-59.203l48-45.983c2.991-2.866,3.093-7.613,0.227-10.604
		c-2.866-2.991-7.613-3.093-10.604-0.227l-59.308,56.815h-0.533L88.83,17.557c-2.979-2.879-7.727-2.798-10.605,0.18
		c-2.879,2.978-2.798,7.726,0.18,10.605l31.612,30.558H48.771c-12.407,0-22.5,10.093-22.5,22.5v134.764
		c0,12.407,10.093,22.5,22.5,22.5H213.02c12.406,0,22.5-10.093,22.5-22.5V81.399C235.52,68.993,225.426,58.899,213.02,58.899z
		 M220.52,216.163c0,4.135-3.364,7.5-7.5,7.5H48.771c-4.135,0-7.5-3.365-7.5-7.5V81.399c0-4.135,3.365-7.5,7.5-7.5H213.02
		c4.136,0,7.5,3.365,7.5,7.5V216.163z"/>
	<path style="fill:#000002;" d="M171.712,246.791H90.079c-4.142,0-7.5,3.358-7.5,7.5c0,4.142,3.358,7.5,7.5,7.5h81.633
		c4.143,0,7.5-3.358,7.5-7.5C179.212,250.149,175.855,246.791,171.712,246.791z"/>
</g>
<g>
</g>
<g>
</g>
<g>
</g>
<g>
</g>
<g>
</g>
<g>
</g>
<g>
</g>
<g>
</g>
<g>
</g>
<g>
</g>
<g>
</g>
<g>
</g>
<g>
</g>
<g>
</g>
<g>
</g>
</svg>
