<?xml version="1.0" encoding="iso-8859-1"?>
<!-- Generator: Adobe Illustrator 16.0.0, SVG Export Plug-In . SVG Version: 6.00 Build 0)  -->
<!DOCTYPE svg PUBLIC "-//W3C//DTD SVG 1.1//EN" "http://www.w3.org/Graphics/SVG/1.1/DTD/svg11.dtd">
<svg version="1.1" id="Capa_1" xmlns="http://www.w3.org/2000/svg" xmlns:xlink="http://www.w3.org/1999/xlink" x="0px" y="0px"
	 width="617.115px" height="617.115px" viewBox="0 0 617.115 617.115" style="enable-background:new 0 0 617.115 617.115;"
	 xml:space="preserve">
<g>
	<g>
		<g>
			<path d="M387.174,617.115c-6.077,0-11.65-3.513-14.254-9.053L255.706,358.951L11.733,246.813
				c-5.787-2.66-9.399-8.536-9.166-14.897c0.233-6.36,4.274-11.959,10.238-14.185L593.284,0.999
				c5.729-2.149,12.224-0.77,16.599,3.556c4.363,4.324,5.825,10.786,3.739,16.562L402.007,606.707
				c-2.168,5.988-7.729,10.093-14.09,10.383C387.672,617.108,387.426,617.115,387.174,617.115z M59.336,233.996l214.759,98.711
				c3.379,1.551,6.096,4.249,7.679,7.609L385.27,560.27l187.122-517.82L59.336,233.996z"/>
			<path d="M267.514,362.791c-4.035,0-8.063-1.539-11.146-4.615c-6.16-6.159-6.16-16.139,0-22.285L587.647,4.624
				c6.159-6.159,16.133-6.159,22.285,0c6.153,6.159,6.159,16.14,0,22.286L278.66,358.176
				C275.577,361.252,271.548,362.791,267.514,362.791z"/>
		</g>
	</g>
</g>
<g>
</g>
<g>
</g>
<g>
</g>
<g>
</g>
<g>
</g>
<g>
</g>
<g>
</g>
<g>
</g>
<g>
</g>
<g>
</g>
<g>
</g>
<g>
</g>
<g>
</g>
<g>
</g>
<g>
</g>
</svg>
